<svg width="800px" height="800px" viewBox="0 0 1024 1024" class="icon"  version="1.1" xmlns="http://www.w3.org/2000/svg"><path d="M512 981.333333C252.8 981.333333 42.666667 771.2 42.666667 512S252.8 42.666667 512 42.666667s469.333333 210.133333 469.333333 469.333333-210.133333 469.333333-469.333333 469.333333z m0-874.666666C281.6 106.666667 106.666667 281.6 106.666667 512s174.933333 405.333333 405.333333 405.333333 405.333333-174.933333 405.333333-405.333333S742.4 106.666667 512 106.666667z" fill="#0E932E" /><path d="M512 512m-341.333333 0a341.333333 341.333333 0 1 0 682.666666 0 341.333333 341.333333 0 1 0-682.666666 0Z" fill="#0E932E" /><path d="M503.466667 327.68h17.066666v108.8h-17.066666z" fill="#FFFFFF" /><path d="M588.8 435.626667l34.56-26.88c-17.493333-20.906667-42.453333-34.133333-70.4-34.133334v42.666667c14.506667 0 25.6 6.826667 35.84 18.346667z" fill="#FFFFFF" /><path d="M520.96 744.96h-17.92v-208h243.626667V514.56h-77.226667v-64h1.28c35.413333-2.56 63.146667-33.28 63.146667-70.826667C734.72 342.613333 704.853333 320 668.586667 320h-104.106667V227.413333a10.24 10.24 0 0 0-10.666667-9.386666h-73.813333a10.24 10.24 0 0 0-10.666667 9.386666V320H364.8c-36.266667 0-66.133333 22.613333-66.133333 59.733333 0 37.546667 27.733333 68.266667 63.146666 70.826667h1.28v64h-77.226666v22.613333h243.626666v208h-8.533333zM492.8 240.64h38.4V320h-38.4V240.64z m-119.466667 187.733333c-19.626667 0-35.84-15.36-35.84-36.266666 0-20.053333 13.653333-36.266667 30.72-36.266667h124.586667V320h38.4v35.84h124.586667c17.066667 0 30.72 16.213333 30.72 36.266667 0 20.906667-16.213333 36.266667-35.84 36.266666h-77.226667c-13.653333 0-24.32 11.52-24.32 25.6v88.746667H520.96v-83.626667c0-17.066667-8.106667-25.6-23.466667-25.6l-124.16-0.853333z m188.586667 70.826667v224h-63.146667v-224h63.146667z" fill="#FFFFFF" /></svg>
