<svg xmlns="http://www.w3.org/2000/svg" width="219.197" height="167.862" viewBox="0 0 219.197 167.862"><g id="Icon_Green" data-name="Icon Green" transform="translate(-843 -1512.148)"><path id="Path_757" data-name="Path 757" d="M.643,41.439C14.179,85.082,61.9,121.33,112.686,121.715s84.089-59.087,81.487-98.529S-12.892-2.2.643,41.439Z" transform="matrix(0.966, 0.259, -0.259, 0.966, 874.502, 1512.148)" fill="#f4f4f6"></path><path id="leaf" d="M104.51,47.028A5.3,5.3,0,0,0,99.283,41.8a80.419,80.419,0,0,0-25.963,4.04A76.046,76.046,0,0,0,52.133,56.782,135.649,135.649,0,0,0,32.9,74.71a5.4,5.4,0,0,0-1.553,3.674,5.3,5.3,0,0,0,5.227,5.227,5.4,5.4,0,0,0,3.674-1.553q2.2-1.959,6.044-5.8t5.471-5.389Q62.952,60.749,73.69,56.5t25.6-4.247a5.3,5.3,0,0,0,5.227-5.227ZM146.315,30.86a78.633,78.633,0,0,1-1.634,15.757,67.253,67.253,0,0,1-15.062,31.271q-11.307,12.981-29.19,21.886a78.52,78.52,0,0,1-35.762,8.82,71.972,71.972,0,0,1-23.353-3.837q-1.223-.406-7.186-3.43t-7.84-3.02q-1.3,0-3.227,2.613a56.671,56.671,0,0,0-3.674,5.714A27.849,27.849,0,0,1,15.1,112.35q-2.536,2.613-4.9,2.613-3.512,0-5.186-1.431A19.893,19.893,0,0,1,1.3,108.675q-.163-.325-.492-.9t-.447-.817a4.093,4.093,0,0,1-.244-.776,4.623,4.623,0,0,1-.122-1.1,9.751,9.751,0,0,1,2.532-6,29.322,29.322,0,0,1,5.552-5.349,58.993,58.993,0,0,0,5.552-4.572q2.532-2.369,2.532-3.918a20.3,20.3,0,0,0-1.142-3.1,26.674,26.674,0,0,1-1.3-3.593,48.732,48.732,0,0,1-.736-8.49,46.486,46.486,0,0,1,3.552-17.964A48.678,48.678,0,0,1,26.256,37.03a71.507,71.507,0,0,1,13.92-11.348,76.242,76.242,0,0,1,16.651-7.8A53.3,53.3,0,0,1,68.667,15.8q7.348-.61,14.656-.736T97.9,14.575a65.77,65.77,0,0,0,13.351-1.959q6.084-1.593,9.267-4.613l2.41-2.41,2.41-2.288,2.2-1.634,2.979-1.3L134.069,0q3.182,0,5.755,3.755A27.482,27.482,0,0,1,143.7,12.9q1.3,5.389,1.959,10.124a59.3,59.3,0,0,1,.654,7.84Z" transform="translate(886.842 1536.115)" fill="#ff0060"></path></g></svg>