<svg xmlns="http://www.w3.org/2000/svg" width="254.693" height="195.045" viewBox="0 0 254.693 195.045"><g id="Icon_Hardfill" data-name="Icon Hardfill" transform="translate(-1307.252 -1509.146)"><path id="Path_756" data-name="Path 756" d="M.748,93.278C16.475,42.568,71.923.449,130.934,0s97.706,68.656,94.683,114.484S-14.98,143.988.748,93.278Z" transform="matrix(-0.966, 0.259, -0.259, -0.966, 1561.945, 1645.755)" fill="#f4f4f6"></path><rect id="Rectangle_363" data-name="Rectangle 363" width="70" height="35" rx="6" transform="translate(1359 1548.669)" fill="#ff0060"></rect><rect id="Rectangle_364" data-name="Rectangle 364" width="70" height="35" rx="6" transform="translate(1435 1548.669)" fill="#ff0060"></rect><rect id="Rectangle_363-2" data-name="Rectangle 363" width="70" height="35" rx="6" transform="translate(1359 1629.669)" fill="#ff0060"></rect><rect id="Rectangle_364-2" data-name="Rectangle 364" width="70" height="35" rx="6" transform="translate(1435 1629.669)" fill="#ff0060"></rect><rect id="Rectangle_366" data-name="Rectangle 366" width="70" height="34" rx="6" transform="translate(1321 1589.669)" fill="#ff0060"></rect><rect id="Rectangle_367" data-name="Rectangle 367" width="70" height="34" rx="6" transform="translate(1473 1589.669)" fill="#ff0060"></rect><rect id="Rectangle_365" data-name="Rectangle 365" width="70" height="34" rx="6" transform="translate(1397 1589.669)" fill="#ff0060"></rect></g></svg>