<svg xmlns="http://www.w3.org/2000/svg" width="219.197" height="167.862" viewBox="0 0 219.197 167.862"><g id="Icon_Bin" data-name="Icon Bin" transform="translate(-378.401 -621.479)"><path id="Path_280" data-name="Path 280" d="M.643,80.278C14.179,36.635,61.9.387,112.686,0s84.089,59.087,81.487,98.529S-12.892,123.92.643,80.278Z" transform="matrix(0.966, -0.259, 0.259, 0.966, 378.401, 671.772)" fill="#f4f4f6"></path><path id="Path_754" data-name="Path 754" d="M40.591,4.5h-23.6a2.333,2.333,0,0,0-2.362,2.362v7.083H42.949V6.863A2.333,2.333,0,0,0,40.586,4.5Z" transform="translate(459.213 644.261)" fill="none"></path><path id="Path_755" data-name="Path 755" d="M113.074,21.132H84.75V14.054a11.8,11.8,0,0,0-11.8-11.8h-23.6a11.8,11.8,0,0,0-11.8,11.8v7.083H9.221a4.721,4.721,0,0,0,0,9.441h5.014l5.606,89.964c.42,7.922,6.491,13.889,14.162,13.889H88.292c7.708,0,13.658-5.837,14.162-13.868l5.606-89.985h5.014a4.721,4.721,0,1,0,0-9.441ZM42.433,115.544h-.168a4.721,4.721,0,0,1-4.721-4.553L35.182,44.9a4.724,4.724,0,1,1,9.441-.336l2.362,66.088a4.721,4.721,0,0,1-4.553,4.888Zm23.435-4.721a4.721,4.721,0,1,1-9.441,0V44.735a4.721,4.721,0,0,1,9.441,0Zm9.441-89.691H46.985V14.054a2.333,2.333,0,0,1,2.362-2.362h23.6a2.333,2.333,0,0,1,2.362,2.362Zm9.441,89.859a4.721,4.721,0,0,1-4.721,4.553h-.172a4.721,4.721,0,0,1-4.549-4.888l2.362-66.088a4.724,4.724,0,1,1,9.441.336Z" transform="translate(426.853 637.07)" fill="#ff0060"></path></g></svg>